<svg width="20" height="20" viewBox="0 0 20 20" fill="none" xmlns="http://www.w3.org/2000/svg">
<path d="M1 5.15385C1 12.8006 7.19938 19 14.8462 19H16.9231C17.4739 19 18.0022 18.7812 18.3917 18.3917C18.7812 18.0022 19 17.4739 19 16.9231V15.6566C19 15.1803 18.676 14.7649 18.2135 14.6495L14.1308 13.6286C13.7246 13.5271 13.2982 13.6794 13.048 14.0135L12.1526 15.2071C11.8923 15.5542 11.4428 15.7074 11.0357 15.5578C9.5245 15.0023 8.15214 14.1249 7.01364 12.9864C5.87515 11.8479 4.99773 10.4755 4.44215 8.96431C4.29262 8.55723 4.44585 8.10769 4.79292 7.84738L5.98646 6.952C6.32154 6.70185 6.47292 6.27446 6.37138 5.86923L5.35046 1.78646C5.29428 1.56187 5.16467 1.3625 4.9822 1.22C4.79974 1.07751 4.57489 1.00008 4.34338 1H3.07692C2.52609 1 1.99782 1.21882 1.60832 1.60832C1.21882 1.99782 1 2.52609 1 3.07692V5.15385Z" stroke="#1F1F1F" stroke-width="2" stroke-linecap="round" stroke-linejoin="round"/>
</svg>
