<svg width="20" height="18" viewBox="0 0 20 18" fill="none" xmlns="http://www.w3.org/2000/svg">
<path d="M12.7273 8H14.0909V10.82L16.3091 12.23L15.6273 13.53L12.7273 11.69V8ZM15.5727 4.33C14.7545 1.81 12.5727 0 10 0C7.54545 0 5.45455 1.65 4.54545 4C2.03636 4 0 6.24 0 9C0 11.76 2.03636 14 4.54545 14H7.89091C8.91818 16.36 11.1 18 13.6364 18C17.1545 18 20 14.87 20 11C20 7.88 18.1455 5.24 15.5727 4.33ZM4.54545 12C3.03636 12 1.81818 10.66 1.81818 9C1.81818 7.34 3.03636 6 4.54545 6C4.88182 6 5.20909 6.07 5.50909 6.19C5.68455 5.01931 6.23246 3.9553 7.05505 3.18783C7.87764 2.42036 8.92137 1.99937 10 2C11.4818 2 12.7909 2.79 13.6364 4C10.1091 4 7.27273 7.14 7.27273 11C7.27273 11.34 7.3 11.67 7.34545 12H4.54545ZM13.6364 16C11.1273 16 9.09091 13.76 9.09091 11C9.09091 8.24 11.1273 6 13.6364 6C16.1455 6 18.1818 8.24 18.1818 11C18.1818 13.76 16.1455 16 13.6364 16Z" fill="#1F1F1F"/>
</svg>
