<svg width="20" height="20" viewBox="0 0 20 20" fill="none" xmlns="http://www.w3.org/2000/svg">
<path d="M14.3073 3.14773L15.9268 1.52727C16.2644 1.18966 16.7223 1 17.1998 1C17.6772 1 18.1351 1.18966 18.4727 1.52727C18.8103 1.86488 19 2.32277 19 2.80021C19 3.27766 18.8103 3.73555 18.4727 4.07316L8.27862 14.2673C7.7711 14.7745 7.14523 15.1473 6.45753 15.352L3.87996 16.12L4.64795 13.5425C4.8527 12.8548 5.22551 12.2289 5.73274 11.7214L14.3073 3.14773ZM14.3073 3.14773L16.8398 5.68018M15.3998 12.2801V16.84C15.3998 17.4129 15.1722 17.9623 14.7672 18.3674C14.3621 18.7724 13.8127 19 13.2398 19H3.15997C2.58711 19 2.03771 18.7724 1.63264 18.3674C1.22757 17.9623 1 17.4129 1 16.84V6.76016C1 6.1873 1.22757 5.6379 1.63264 5.23283C2.03771 4.82776 2.58711 4.60019 3.15997 4.60019H7.71991" stroke="#1F1F1F" stroke-width="2" stroke-linecap="round" stroke-linejoin="round"/>
</svg>
