<svg width="20" height="24" viewBox="0 0 20 24" fill="none" xmlns="http://www.w3.org/2000/svg">
<path d="M19 14.5385V11.5769C19 10.5671 18.5733 9.59856 17.8138 8.88448C17.0543 8.1704 16.0241 7.76923 14.95 7.76923H13.15C12.792 7.76923 12.4486 7.63551 12.1954 7.39748C11.9422 7.15945 11.8 6.83662 11.8 6.5V4.80769C11.8 3.79783 11.3733 2.82933 10.6138 2.11525C9.85426 1.40117 8.82413 1 7.75 1H5.5M5.5 10.3077L5.764 10.0595C5.88986 9.9413 6.05016 9.86083 6.22464 9.82824C6.39912 9.79566 6.57995 9.81241 6.74431 9.87639C6.90866 9.94038 7.04917 10.0487 7.14807 10.1877C7.24697 10.3267 7.29984 10.4902 7.3 10.6574V17.9242C7.3 18.4567 7.5568 18.9779 8.068 19.207C9.14452 19.6882 10.3802 19.7483 11.5037 19.3739C12.6273 18.9995 13.5469 18.2213 14.0608 17.2101C14.3068 16.7272 13.8784 16.2308 13.3084 16.2308H12.7M5.5 13.6923H14.5M8.2 1H2.35C1.6048 1 1 1.56862 1 2.26923V21.7308C1 22.4314 1.6048 23 2.35 23H17.65C18.3952 23 19 22.4314 19 21.7308V11.1538C19 8.46088 17.8621 5.87821 15.8368 3.97399C13.8114 2.06978 11.0643 1 8.2 1Z" stroke="#1F1F1F" stroke-width="2" stroke-linecap="round" stroke-linejoin="round"/>
</svg>
