<svg width="21" height="21" viewBox="0 0 21 21" fill="none" xmlns="http://www.w3.org/2000/svg">
<path d="M6.82785 7.26489C7.37685 6.09989 8.85785 5.26489 10.5999 5.26489C12.8099 5.26489 14.5999 6.60789 14.5999 8.26489C14.5999 9.66489 13.3219 10.8399 11.5939 11.1719C11.0519 11.2759 10.5999 11.7119 10.5999 12.2649M10.5999 15.2649H10.6099M19.5999 10.2649C19.5999 11.4468 19.3671 12.6171 18.9148 13.709C18.4625 14.801 17.7995 15.7931 16.9638 16.6289C16.1281 17.4646 15.1359 18.1275 14.044 18.5798C12.9521 19.0321 11.7818 19.2649 10.5999 19.2649C9.41796 19.2649 8.24763 19.0321 7.1557 18.5798C6.06377 18.1275 5.07162 17.4646 4.23589 16.6289C3.40017 15.7931 2.73723 14.801 2.28494 13.709C1.83265 12.6171 1.59985 11.4468 1.59985 10.2649C1.59985 7.87794 2.54806 5.58876 4.23589 3.90093C5.92372 2.2131 8.21291 1.26489 10.5999 1.26489C12.9868 1.26489 15.276 2.2131 16.9638 3.90093C18.6516 5.58876 19.5999 7.87794 19.5999 10.2649Z" stroke="black" stroke-width="2" stroke-linecap="round" stroke-linejoin="round"/>
</svg>
