<svg width="21" height="21" viewBox="0 0 21 21" fill="none" xmlns="http://www.w3.org/2000/svg">
<path d="M7.03857 10.6365L9.05501 12.6529L13.0879 8.62003M5.86399 3.27343C6.58719 3.21571 7.27377 2.93134 7.82599 2.46081C8.44999 1.92874 9.24319 1.63647 10.0632 1.63647C10.8833 1.63647 11.6765 1.92874 12.3005 2.46081C12.8527 2.93134 13.5393 3.21571 14.2625 3.27343C15.0799 3.33846 15.8474 3.69268 16.4272 4.2725C17.007 4.85233 17.3612 5.61982 17.4263 6.43723C17.484 7.16044 17.7684 7.84701 18.2389 8.39923C18.771 9.02323 19.0632 9.81643 19.0632 10.6365C19.0632 11.4565 18.771 12.2497 18.2389 12.8737C17.7684 13.4259 17.484 14.1125 17.4263 14.8357C17.3612 15.6531 17.007 16.4206 16.4272 17.0004C15.8474 17.5803 15.0799 17.9345 14.2625 17.9995C13.5393 18.0572 12.8527 18.3416 12.3005 18.8121C11.6765 19.3442 10.8833 19.6365 10.0632 19.6365C9.24319 19.6365 8.44999 19.3442 7.82599 18.8121C7.27377 18.3416 6.58719 18.0572 5.86399 17.9995C5.04657 17.9345 4.27909 17.5803 3.69926 17.0004C3.11943 16.4206 2.76522 15.6531 2.70019 14.8357C2.64247 14.1125 2.3581 13.4259 1.88756 12.8737C1.35549 12.2497 1.06323 11.4565 1.06323 10.6365C1.06323 9.81643 1.35549 9.02323 1.88756 8.39923C2.3581 7.84701 2.64247 7.16044 2.70019 6.43723C2.76522 5.61982 3.11943 4.85233 3.69926 4.2725C4.27909 3.69268 5.04657 3.33846 5.86399 3.27343Z" stroke="#1F1F1F" stroke-width="2" stroke-linecap="round" stroke-linejoin="round"/>
</svg>
