<svg width="18" height="21" viewBox="0 0 18 21" fill="none" xmlns="http://www.w3.org/2000/svg">
<path d="M9 21C7.76667 21 6.604 20.7623 5.512 20.287C4.42 19.8117 3.466 19.166 2.65 18.35C1.83333 17.5333 1.18733 16.579 0.712001 15.487C0.236668 14.395 -0.000665266 13.2327 1.40056e-06 12H2C2 13.9333 2.68333 15.5833 4.05 16.95C5.41667 18.3167 7.06667 19 9 19C10.9333 19 12.5833 18.3167 13.95 16.95C15.3167 15.5833 16 13.9333 16 12H18C18 13.2333 17.7623 14.396 17.287 15.488C16.8117 16.58 16.166 17.534 15.35 18.35C14.5333 19.1667 13.579 19.8127 12.487 20.288C11.395 20.7633 10.2327 21.0007 9 21ZM1.40056e-06 12C1.40056e-06 10.7667 0.237668 9.604 0.713001 8.512C1.18833 7.42 1.834 6.466 2.65 5.65C3.46667 4.83333 4.421 4.18733 5.513 3.712C6.605 3.23667 7.76733 2.99933 9 3C10.0333 3 11.025 3.16667 11.975 3.5C12.925 3.83333 13.8167 4.31667 14.65 4.95L16.05 3.55L17.45 4.95L16.05 6.35C16.6833 7.18333 17.1667 8.075 17.5 9.025C17.8333 9.975 18 10.9667 18 12H16C16 10.0667 15.3167 8.41667 13.95 7.05C12.5833 5.68333 10.9333 5 9 5C7.06667 5 5.41667 5.68333 4.05 7.05C2.68333 8.41667 2 10.0667 2 12H1.40056e-06ZM6 2V0H12V2H6ZM9 5C7.23333 5 5.7 5.575 4.4 6.725C3.1 7.875 2.325 9.3 2.075 11H5.625L6.925 13.4L11 6.25L13.6 11H15.925C15.675 9.3 14.9 7.875 13.6 6.725C12.3 5.575 10.7667 5 9 5ZM9 19C10.7667 19 12.3 18.425 13.6 17.275C14.9 16.125 15.675 14.7 15.925 13H12.375L11.075 10.6L7 17.75L4.4 13H2.075C2.325 14.7 3.1 16.125 4.4 17.275C5.7 18.425 7.23333 19 9 19ZM9 19C7.06667 19 5.41667 18.3167 4.05 16.95C2.68333 15.5833 2 13.9333 2 12C2 10.0667 2.68333 8.41667 4.05 7.05C5.41667 5.68333 7.06667 5 9 5C10.9333 5 12.5833 5.68333 13.95 7.05C15.3167 8.41667 16 10.0667 16 12C16 13.9333 15.3167 15.5833 13.95 16.95C12.5833 18.3167 10.9333 19 9 19Z" fill="#1F1F1F"/>
</svg>
