<svg width="24" height="24" viewBox="0 0 24 24" fill="none" xmlns="http://www.w3.org/2000/svg">
<path d="M12 23C14.4383 22.9999 16.8076 22.1899 18.7357 20.6974C20.6638 19.2048 22.0417 17.1141 22.6529 14.7537M12 23C9.56167 22.9999 7.19244 22.1899 5.2643 20.6974C3.33616 19.2048 1.95832 17.1141 1.34712 14.7537M12 23C15.0372 23 17.5 18.0744 17.5 12C17.5 5.92556 15.0372 1 12 1M12 23C8.96278 23 6.5 18.0744 6.5 12C6.5 5.92556 8.96278 1 12 1M22.6529 14.7537C22.879 13.8737 23 12.9509 23 12C23.003 10.1081 22.5158 8.24776 21.5859 6.60022M22.6529 14.7537C19.3934 16.5606 15.7268 17.5058 12 17.5C8.13533 17.5 4.50411 16.5039 1.34712 14.7537M1.34712 14.7537C1.11581 13.8541 0.999178 12.9289 1 12C1 10.0383 1.51334 8.19522 2.41411 6.60022M12 1C13.951 0.999187 15.867 1.51744 17.5516 2.50158C19.2361 3.48572 20.6285 4.90032 21.5859 6.60022M12 1C10.049 0.999187 8.13298 1.51744 6.44843 2.50158C4.76388 3.48572 3.37149 4.90032 2.41411 6.60022M21.5859 6.60022C18.9247 8.90525 15.5206 10.1717 12 10.1667C8.33578 10.1667 4.98445 8.82222 2.41411 6.60022" stroke="#1F1F1F" stroke-width="2" stroke-linecap="round" stroke-linejoin="round"/>
</svg>
